<?xml version="1.0" encoding="UTF-8"?>
<svg id="Layer_1" data-name="Layer 1" xmlns="http://www.w3.org/2000/svg" viewBox="0 0 1000 1000">
  <defs>
    <style>
      .cls-1 {
        fill: #6b46c1;
      }
    </style>
  </defs>
  <g>
    <path d="M504.99,296.94c19.33,10.61,38.17,21.1,57.17,31.26,4.95,2.65,7,5.88,6.97,11.64-.19,34.81-.03,69.62.06,104.44,0,3.4-.23,6.6-1.94,9.73-20.81,38-41.54,76.06-62.32,114.08-.84,1.53-1.96,2.91-2.78,4.12-2.8.26-3.49-1.59-4.32-3.12-20.67-38.08-41.31-76.19-62-114.26-1.79-3.29-2.23-6.7-2.23-10.37.02-44.69.12-89.39-.17-134.08-.05-8.36,1.19-15.99,5.72-23.06,1.81-2.83,3.3-5.87,4.91-8.83,6.21-11.37,6.15-11.26,17.23-5.17,14.36,7.9,28.83,15.59,43.69,23.62Z"/>
    <path d="M370.3,374.82c0-36.44,0-72.2,0-107.53,2.88-1.15,4.05.11,5.34.93,13.65,8.63,27.24,17.34,40.95,25.87,3.76,2.34,5.69,5.11,5.68,9.78-.1,46.66-.08,93.33.05,139.99.01,4.13-1.53,6.68-4.99,8.68-13.2,7.63-26.27,15.49-39.52,23.04-5.94,3.39-7.45,2.41-7.47-4.51-.07-31.86-.04-63.71-.05-96.25Z"/>
    <path d="M633.29,447.6c-.32,10.21.8,19.82-.63,28.83-2.96,1.71-4.73.38-6.42-.55-13.16-7.24-26.25-14.62-39.44-21.81-4.66-2.54-6.41-6.05-6.39-11.44.17-34.77.1-69.54-.06-104.3-.03-5.48,1.67-9.95,4.97-14.21,14.43-18.6,29.47-36.73,42.99-56.03.59-.84,1.6-1.4,3.58-1.94,2.86,60.31-.46,120.58,1.4,181.46Z"/>
    <path d="M544.76,264.1c8.21,18.12,16.22,35.77,24.25,53.48-3.63,1.64-5.35-.25-7.2-1.25-32.35-17.53-64.67-35.12-96.99-52.7-9.04-4.92-9.16-5.35-4.56-14.34,12.38-24.16,24.74-48.32,37.13-72.48.91-1.77,1.6-3.74,5.11-5.75,14.06,30.96,28.06,61.77,42.25,93.04Z"/>
    <path class="cls-1" d="M530.52,204.12c-6.77-14.15-13.33-27.85-19.95-41.67,3.36-1.55,4.69.87,6.22,2.12,34.86,28.6,69.62,57.32,104.53,85.86,4.31,3.52,4.39,5.93.9,10.34-12.12,15.29-23.71,31-35.52,46.53-1.47,1.94-2.61,4.24-6.52,5.56-16.45-36.01-32.95-72.15-49.66-108.75Z"/>
    <path d="M459.31,227.55c-9.68,18.02-19.26,35.52-28.47,53.22-2.88,5.54-5.91,6.36-11.08,3.02-12.24-7.91-24.66-15.54-37.04-23.24-4.54-2.82-5.16-5.41-.62-9.14,35.03-28.7,69.94-57.55,104.91-86.32,1.17-.97,2.34-2.15,5.43-1.56-11.08,21.41-21.99,42.5-33.14,64.02Z"/>
    <path d="M472.95,546.13c6.1,10.93,11.95,21.44,18.17,32.61-6.79-1.32-105.8-81.65-111.65-89.86.62-2.79,3.17-3.58,5.22-4.81,11.55-6.93,23.32-13.51,34.62-20.83,5.95-3.86,8.21-1.06,10.77,3.71,14.13,26.29,28.39,52.51,42.86,79.18Z"/>
    <path d="M586.9,465.76c12.69,7.2,24.95,14.16,39.18,22.25-38.48,30.77-74.41,62.15-113.51,92.04.16-5.23,2.89-7.54,4.39-10.3,18.14-33.31,36.39-66.57,54.61-99.84q5.38-9.82,15.32-4.16Z"/>
  </g>
  <g>
    <path d="M165.88,659.63c4.46-7.64,10.6-13.62,18.42-17.94,7.82-4.32,16.65-6.49,26.5-6.49s18.84,2.14,26.71,6.42,14.01,10.21,18.42,17.8c4.42,7.59,6.62,16.22,6.62,25.88s-2.23,18.29-6.69,25.88c-4.46,7.59-10.65,13.53-18.56,17.8-7.91,4.28-16.84,6.42-26.77,6.42s-18.54-2.12-26.36-6.35c-7.82-4.23-13.94-10.14-18.36-17.73s-6.62-16.17-6.62-25.74,2.23-18.31,6.69-25.95ZM187.48,700.07c2.3,4.23,5.47,7.5,9.52,9.8,4.05,2.3,8.6,3.45,13.66,3.45s9.64-1.17,13.73-3.52c4.09-2.35,7.34-5.63,9.73-9.87,2.39-4.23,3.59-9.06,3.59-14.49s-1.17-10.53-3.52-14.77c-2.35-4.23-5.57-7.52-9.66-9.87-4.1-2.35-8.67-3.52-13.73-3.52s-9.64,1.17-13.73,3.52c-4.1,2.35-7.29,5.66-9.59,9.94-2.3,4.28-3.45,9.18-3.45,14.7s1.15,10.4,3.45,14.63Z"/>
    <path d="M278.91,637.83c.6-.55,1.49-.83,2.69-.83h36.16c12.05,0,21.19,2.12,27.4,6.35,6.21,4.23,9.32,11.09,9.32,20.56,0,4.69-1.08,8.7-3.24,12.01-2.16,3.31-5.08,5.84-8.76,7.59,4.6,1.38,8.26,3.91,10.97,7.59,2.71,3.68,4.07,8,4.07,12.97,0,10.21-3.43,17.69-10.28,22.43-6.86,4.74-16.54,7.11-29.05,7.11h-36.57c-1.2,0-2.09-.3-2.69-.9-.6-.6-.9-1.49-.9-2.69v-89.43c0-1.29.3-2.21.9-2.76ZM302.44,658.46c-.28.32-.41.85-.41,1.59v12.28c0,.74.14,1.27.41,1.59.28.32.83.48,1.66.48h12.28c4.78,0,8.23-.64,10.35-1.93,2.12-1.29,3.17-3.4,3.17-6.35s-1.06-5.04-3.17-6.28c-2.12-1.24-5.57-1.86-10.35-1.86h-12.28c-.83,0-1.38.16-1.66.48ZM329.21,710.56c2.3-1.38,3.45-3.59,3.45-6.62s-1.2-5.22-3.59-6.56c-2.39-1.33-6.03-2-10.9-2h-14.08c-.83,0-1.38.14-1.66.41-.28.28-.41.83-.41,1.66v13.11c0,.74.14,1.27.41,1.59.28.32.83.48,1.66.48h14.08c5.06,0,8.74-.69,11.04-2.07Z"/>
    <path d="M437.69,647.07c1.1.83,1.66,1.75,1.66,2.76,0,.92-.32,1.84-.97,2.76l-7.45,11.87c-.83,1.29-1.7,1.93-2.62,1.93-.74,0-1.61-.37-2.62-1.1-3.59-2.67-7.18-4.71-10.77-6.14-3.59-1.43-7.31-2.14-11.18-2.14s-6.58.71-8.69,2.14c-2.12,1.43-3.17,3.29-3.17,5.59,0,1.75.55,3.15,1.66,4.21,1.1,1.06,2.76,2,4.97,2.83,2.21.83,5.43,1.75,9.66,2.76,7.18,1.75,13.06,3.89,17.67,6.42,4.6,2.53,8.05,5.68,10.35,9.45,2.3,3.77,3.45,8.37,3.45,13.8,0,6.44-1.59,12.01-4.76,16.7s-7.68,8.28-13.52,10.76c-5.84,2.48-12.58,3.73-20.22,3.73-6.99,0-13.44-1.04-19.32-3.11-5.89-2.07-11.18-4.94-15.87-8.62-1.38-1.1-2.07-2.16-2.07-3.17,0-.92.37-1.93,1.1-3.04l7.18-11.46c.83-1.38,1.75-2.07,2.76-2.07.64,0,1.52.41,2.62,1.24,3.31,2.58,7.04,4.62,11.18,6.14,4.14,1.52,8.28,2.28,12.42,2.28,4.42,0,7.8-.71,10.14-2.14,2.35-1.42,3.52-3.33,3.52-5.73,0-1.66-.55-3.04-1.66-4.14-1.1-1.1-2.85-2.09-5.24-2.97-2.39-.87-5.89-1.86-10.49-2.97-6.81-1.66-12.42-3.68-16.84-6.07-4.42-2.39-7.78-5.5-10.07-9.32-2.3-3.82-3.45-8.53-3.45-14.15,0-6.44,1.56-11.98,4.69-16.63,3.13-4.65,7.47-8.19,13.04-10.63,5.57-2.44,11.94-3.66,19.11-3.66,12.7,0,23.97,3.96,33.81,11.87Z"/>
    <path d="M477.92,732.78c-.6.55-1.54.83-2.83.83h-16.7c-1.2,0-2.09-.3-2.69-.9-.6-.6-.9-1.49-.9-2.69v-89.43c0-1.29.3-2.21.9-2.76.6-.55,1.49-.83,2.69-.83h16.7c1.29,0,2.23.28,2.83.83.6.55.9,1.47.9,2.76v89.43c0,1.29-.3,2.21-.9,2.76Z"/>
    <path d="M500.42,637.83c.6-.55,1.49-.83,2.69-.83h33.95c11.13,0,20.65,1.93,28.57,5.8,7.91,3.86,13.94,9.34,18.08,16.42,4.14,7.09,6.21,15.41,6.21,24.98s-2.16,18.75-6.49,26.15c-4.33,7.41-10.65,13.13-18.98,17.18-8.33,4.05-18.24,6.07-29.74,6.07h-31.6c-1.2,0-2.09-.3-2.69-.9-.6-.6-.9-1.49-.9-2.69v-89.43c0-1.29.3-2.21.9-2.76ZM523.95,659.56c-.28.32-.41.85-.41,1.59v48.3c0,.74.14,1.27.41,1.59.28.32.83.48,1.66.48h8.97c9.94,0,17.5-2.35,22.7-7.04,5.2-4.69,7.8-11.22,7.8-19.6,0-5.25-1.15-9.8-3.45-13.66-2.3-3.86-5.68-6.85-10.14-8.97-4.46-2.12-9.92-3.17-16.36-3.17h-9.52c-.83,0-1.38.16-1.66.48Z"/>
    <path d="M628.49,732.78c-.6.55-1.54.83-2.83.83h-16.7c-1.2,0-2.09-.3-2.69-.9-.6-.6-.9-1.49-.9-2.69v-89.43c0-1.29.3-2.21.9-2.76.6-.55,1.49-.83,2.69-.83h16.7c1.29,0,2.23.28,2.83.83.6.55.9,1.47.9,2.76v89.43c0,1.29-.3,2.21-.9,2.76Z"/>
    <path d="M665.68,729.19c-.83,1.75-1.7,2.92-2.62,3.52-.92.6-2.26.9-4,.9h-16.84c-2.03,0-3.04-.64-3.04-1.93,0-.83.23-1.66.69-2.48l44.03-87.64c1.29-2.67,2.39-4.51,3.31-5.52.92-1.01,1.93-1.52,3.04-1.52s2.09.51,2.97,1.52c.87,1.01,2,2.85,3.38,5.52l44.3,87.64c.46.83.69,1.61.69,2.35,0,1.38-1.06,2.07-3.17,2.07h-17.67c-1.75,0-3.06-.3-3.93-.9-.88-.6-1.73-1.77-2.55-3.52l-24.43-50.24-24.15,50.24Z"/>
    <path d="M812.46,637.83c.6-.55,1.5-.83,2.69-.83h16.7c2.48,0,3.73,1.2,3.73,3.59v89.43c0,3.59-1.1,5.38-3.31,5.38-.92,0-1.91-.34-2.97-1.04-1.06-.69-2.46-1.86-4.21-3.52l-49.68-46.65v45.82c0,1.29-.3,2.21-.9,2.76-.6.55-1.54.83-2.83.83h-16.7c-1.2,0-2.09-.3-2.69-.9-.6-.6-.9-1.49-.9-2.69v-89.43c0-3.59,1.1-5.38,3.31-5.38.92,0,1.91.34,2.97,1.04,1.06.69,2.46,1.86,4.21,3.52l49.68,46.65v-45.82c0-1.29.3-2.21.9-2.76Z"/>
    <path d="M275.82,821.2c-.17.2-.26.53-.26.99v12.68c0,.81-.19,1.38-.56,1.73-.37.34-.96.52-1.77.52h-10.44c-.75,0-1.31-.19-1.68-.56-.37-.37-.56-.93-.56-1.68v-55.89c0-.8.19-1.38.56-1.72.37-.35.93-.52,1.68-.52h20.27c17.77,0,26.65,7.28,26.65,21.82,0,7.36-2.33,12.92-6.99,16.69-4.66,3.77-11.42,5.65-20.27,5.65h-5.61c-.52,0-.86.1-1.04.3ZM275.82,790.84c-.17.2-.26.53-.26.99v13.97c0,.46.09.79.26.99.17.2.52.3,1.04.3h5.61c3.85,0,6.77-.7,8.75-2.11,1.98-1.41,2.98-3.52,2.98-6.34s-.96-4.87-2.89-6.17c-1.93-1.29-4.87-1.94-8.84-1.94h-5.61c-.52,0-.86.1-1.04.3Z"/>
    <path d="M333.22,836.6c-.37.34-.96.52-1.77.52h-10.44c-.75,0-1.31-.19-1.68-.56-.37-.37-.56-.93-.56-1.68v-55.89c0-.8.19-1.38.56-1.72.37-.35.93-.52,1.68-.52h19.75c9.03,0,15.76,1.65,20.18,4.96,4.43,3.31,6.64,8.41,6.64,15.31,0,7.25-3.39,12.51-10.18,15.79l13.2,21.56c.4.58.6,1.09.6,1.55,0,.81-.72,1.21-2.16,1.21h-11.21c-1.21,0-2.1-.16-2.67-.47-.58-.32-1.18-1.02-1.81-2.11l-13.8-23.98c-.06-.06-.16-.24-.3-.56-.14-.32-.22-.59-.22-.82,0-.57.57-.95,1.73-1.12,3.33-.4,6.05-1.39,8.15-2.98,2.1-1.58,3.15-3.78,3.15-6.6s-.98-5.1-2.93-6.51c-1.96-1.41-4.86-2.11-8.71-2.11h-5.35c-.52,0-.86.09-1.04.26-.17.17-.26.52-.26,1.04v43.73c0,.81-.19,1.38-.56,1.73Z"/>
    <path d="M379.02,790.88c2.79-4.77,6.63-8.51,11.52-11.21,4.89-2.7,10.41-4.05,16.56-4.05s11.77,1.34,16.69,4.01c4.92,2.67,8.76,6.38,11.52,11.13s4.14,10.13,4.14,16.17-1.4,11.43-4.18,16.17c-2.79,4.74-6.66,8.45-11.6,11.13-4.95,2.67-10.52,4.01-16.73,4.01s-11.59-1.32-16.48-3.97c-4.89-2.64-8.71-6.34-11.47-11.08s-4.14-10.11-4.14-16.09,1.39-11.44,4.18-16.22ZM392.52,816.15c1.44,2.65,3.42,4.69,5.95,6.12,2.53,1.44,5.38,2.16,8.54,2.16s6.02-.73,8.58-2.2c2.56-1.47,4.58-3.52,6.08-6.17,1.49-2.64,2.24-5.66,2.24-9.06s-.73-6.58-2.2-9.23c-1.47-2.64-3.48-4.7-6.04-6.17-2.56-1.47-5.42-2.2-8.58-2.2s-6.02.73-8.58,2.2c-2.56,1.47-4.56,3.54-5.99,6.21-1.44,2.67-2.16,5.74-2.16,9.19s.72,6.5,2.16,9.14Z"/>
    <path d="M492.76,789.98c-.35.38-.92.56-1.73.56h-13.63c-.46,0-.79.1-.99.3-.2.2-.3.53-.3.99v43.04c0,.75-.17,1.31-.52,1.68-.34.38-.92.56-1.73.56h-10.52c-.75,0-1.31-.19-1.68-.56-.38-.37-.56-.93-.56-1.68v-43.04c0-.46-.1-.79-.3-.99-.2-.2-.53-.3-.99-.3h-13.63c-.75,0-1.31-.19-1.68-.56-.37-.37-.56-.93-.56-1.68v-9.32c0-.8.19-1.38.56-1.72.37-.35.93-.52,1.68-.52h44.85c.8,0,1.38.17,1.73.52.34.34.52.92.52,1.72v9.32c0,.75-.17,1.31-.52,1.68Z"/>
    <path d="M501.94,790.88c2.79-4.77,6.63-8.51,11.52-11.21,4.89-2.7,10.41-4.05,16.56-4.05s11.77,1.34,16.69,4.01c4.92,2.67,8.75,6.38,11.52,11.13,2.76,4.74,4.14,10.13,4.14,16.17s-1.4,11.43-4.18,16.17c-2.79,4.74-6.66,8.45-11.6,11.13-4.95,2.67-10.52,4.01-16.73,4.01s-11.59-1.32-16.48-3.97c-4.89-2.64-8.71-6.34-11.47-11.08-2.76-4.74-4.14-10.11-4.14-16.09s1.39-11.44,4.18-16.22ZM515.44,816.15c1.44,2.65,3.42,4.69,5.95,6.12,2.53,1.44,5.38,2.16,8.54,2.16s6.02-.73,8.58-2.2c2.56-1.47,4.59-3.52,6.08-6.17,1.49-2.64,2.24-5.66,2.24-9.06s-.73-6.58-2.2-9.23c-1.47-2.64-3.48-4.7-6.04-6.17-2.56-1.47-5.42-2.2-8.58-2.2s-6.02.73-8.58,2.2c-2.56,1.47-4.56,3.54-6,6.21s-2.16,5.74-2.16,9.19.72,6.5,2.16,9.14Z"/>
    <path d="M616.02,819.35c.69-.52,1.26-.78,1.72-.78.29,0,.55.09.78.26.23.17.49.43.78.78l4.92,7.07c.34.52.52,1.01.52,1.47,0,.52-.43,1.18-1.29,1.98-3.11,2.59-6.58,4.59-10.44,6-3.85,1.41-7.91,2.11-12.16,2.11-6.04,0-11.5-1.34-16.39-4.01-4.89-2.67-8.73-6.37-11.52-11.08-2.79-4.71-4.18-10.01-4.18-15.87s1.41-11.46,4.23-16.26c2.82-4.8,6.71-8.57,11.69-11.3,4.97-2.73,10.59-4.1,16.86-4.1,4.25,0,8.27.72,12.03,2.16,3.77,1.44,7.17,3.42,10.22,5.95.69.58,1.04,1.12,1.04,1.64,0,.46-.2.98-.6,1.55l-5,7.07c-.52.75-1.06,1.12-1.64,1.12-.52,0-1.09-.23-1.73-.69-4.66-3.33-9.46-5-14.41-5-3.28,0-6.22.73-8.84,2.2-2.62,1.47-4.66,3.54-6.12,6.21-1.47,2.67-2.2,5.74-2.2,9.19s.73,6.33,2.2,8.97c1.47,2.65,3.51,4.72,6.12,6.21,2.62,1.5,5.56,2.24,8.84,2.24,5.29,0,10.15-1.7,14.58-5.09Z"/>
    <path d="M632.97,790.88c2.79-4.77,6.63-8.51,11.52-11.21,4.89-2.7,10.41-4.05,16.56-4.05s11.77,1.34,16.69,4.01c4.92,2.67,8.75,6.38,11.52,11.13,2.76,4.74,4.14,10.13,4.14,16.17s-1.4,11.43-4.18,16.17c-2.79,4.74-6.66,8.45-11.6,11.13-4.95,2.67-10.52,4.01-16.73,4.01s-11.59-1.32-16.48-3.97c-4.89-2.64-8.71-6.34-11.47-11.08-2.76-4.74-4.14-10.11-4.14-16.09s1.39-11.44,4.18-16.22ZM646.46,816.15c1.44,2.65,3.42,4.69,5.95,6.12,2.53,1.44,5.38,2.16,8.54,2.16s6.02-.73,8.58-2.2c2.56-1.47,4.58-3.52,6.08-6.17,1.5-2.64,2.24-5.66,2.24-9.06s-.73-6.58-2.2-9.23c-1.47-2.64-3.48-4.7-6.04-6.17-2.56-1.47-5.42-2.2-8.58-2.2s-6.02.73-8.58,2.2c-2.56,1.47-4.56,3.54-6,6.21s-2.16,5.74-2.16,9.19.72,6.5,2.16,9.14Z"/>
    <path d="M718.32,823.01c.17.2.52.3,1.04.3h22.17c.8,0,1.38.17,1.72.52.35.34.52.92.52,1.72v9.32c0,.75-.17,1.31-.52,1.68-.34.38-.92.56-1.72.56h-36.23c-.75,0-1.31-.19-1.68-.56-.38-.37-.56-.93-.56-1.68v-55.89c0-.8.19-1.38.56-1.72.37-.35.93-.52,1.68-.52h10.44c.8,0,1.39.17,1.77.52.37.34.56.92.56,1.72v43.04c0,.46.09.79.26.99Z"/>
  </g>
</svg>