<?xml version="1.0" encoding="UTF-8"?>
<svg id="Layer_1" data-name="Layer 1" xmlns="http://www.w3.org/2000/svg" viewBox="0 0 183.02 290.82">
  <defs>
    <style>
      .cls-1 {
        fill: #6b46c1;
      }
    </style>
  </defs>
  <path d="M93.69,93.9c13.45,7.38,26.55,14.68,39.77,21.75,3.44,1.84,4.87,4.09,4.85,8.1-.13,24.21-.02,48.43.04,72.64,0,2.37-.16,4.59-1.35,6.77-14.48,26.44-28.89,52.9-43.35,79.35-.58,1.07-1.36,2.02-1.93,2.86-1.95.18-2.43-1.11-3-2.17-14.38-26.49-28.74-52.99-43.13-79.48-1.24-2.29-1.55-4.66-1.55-7.21.02-31.09.08-62.18-.12-93.27-.04-5.82.83-11.12,3.98-16.04,1.26-1.97,2.29-4.08,3.42-6.14,4.32-7.91,4.28-7.83,11.98-3.6,9.99,5.49,20.06,10.85,30.39,16.43Z"/>
  <path d="M0,148.06c0-25.35,0-50.22,0-74.8,2-.8,2.82.08,3.71.64,9.49,6,18.95,12.06,28.49,18,2.62,1.63,3.96,3.56,3.95,6.8-.07,32.46-.05,64.92.04,97.38,0,2.87-1.07,4.65-3.47,6.03-9.19,5.3-18.28,10.77-27.49,16.03-4.13,2.36-5.19,1.68-5.2-3.13C-.01,192.85,0,170.69,0,148.06Z"/>
  <path d="M182.94,198.69c-.22,7.1.56,13.78-.44,20.05-2.06,1.19-3.29.26-4.46-.38-9.16-5.03-18.26-10.17-27.43-15.17-3.24-1.77-4.46-4.21-4.44-7.96.12-24.18.07-48.37-.04-72.55-.02-3.81,1.16-6.92,3.46-9.89,10.03-12.94,20.5-25.55,29.9-38.97.41-.59,1.11-.97,2.49-1.35,1.99,41.95-.32,83.87.97,126.22Z"/>
  <path d="M121.35,71.05c5.71,12.6,11.28,24.88,16.87,37.2-2.52,1.14-3.72-.17-5.01-.87-22.5-12.2-44.98-24.43-67.46-36.66-6.29-3.42-6.37-3.72-3.17-9.98,8.61-16.81,17.21-33.61,25.83-50.41.63-1.23,1.11-2.6,3.55-4,9.78,21.54,19.52,42.96,29.39,64.72Z"/>
  <path class="cls-1" d="M111.45,29.33c-4.71-9.85-9.27-19.37-13.88-28.98,2.34-1.08,3.26.6,4.32,1.47,24.25,19.89,48.43,39.87,72.71,59.72,3,2.45,3.05,4.13.62,7.19-8.43,10.63-16.49,21.56-24.71,32.37-1.02,1.35-1.82,2.95-4.53,3.87-11.44-25.05-22.92-50.19-34.55-75.65Z"/>
  <path d="M61.92,45.62c-6.73,12.53-13.4,24.71-19.8,37.02-2,3.85-4.11,4.42-7.71,2.1-8.51-5.5-17.15-10.81-25.76-16.16-3.16-1.96-3.59-3.76-.43-6.35C32.59,42.26,56.87,22.2,81.2,2.18c.82-.67,1.63-1.5,3.78-1.09-7.71,14.89-15.29,29.56-23.05,44.53Z"/>
  <path d="M71.41,267.23c4.25,7.6,8.31,14.91,12.64,22.68-4.72-.92-73.6-56.8-77.66-62.51.43-1.94,2.21-2.49,3.63-3.34,8.03-4.82,16.22-9.4,24.08-14.49,4.14-2.68,5.71-.74,7.49,2.58,9.83,18.29,19.75,36.52,29.82,55.08Z"/>
  <path d="M150.67,211.32c8.83,5.01,17.35,9.85,27.26,15.48-26.77,21.4-51.76,43.23-78.95,64.02.11-3.64,2.01-5.25,3.05-7.16,12.62-23.17,25.31-46.3,37.99-69.45q3.74-6.83,10.66-2.89Z"/>
</svg>