<?xml version="1.0" encoding="UTF-8"?>
<svg id="Layer_1" data-name="Layer 1" xmlns="http://www.w3.org/2000/svg" viewBox="0 0 1000 1000">
  <defs>
    <style>
      .cls-1 {
        fill: #6b46c1;
      }
    </style>
  </defs>
  <path d="M505.26,376.01c32.37,17.76,63.9,35.33,95.73,52.34,8.29,4.43,11.72,9.84,11.67,19.49-.32,58.28-.04,116.57.11,174.85.01,5.7-.39,11.06-3.25,16.29-34.85,63.63-69.55,127.34-104.33,191-1.4,2.56-3.28,4.87-4.66,6.89-4.69.43-5.84-2.66-7.23-5.22-34.61-63.76-69.17-127.56-103.81-191.3-2.99-5.5-3.74-11.23-3.74-17.36.04-74.83.19-149.66-.28-224.49-.09-14,1.99-26.77,9.58-38.6,3.04-4.74,5.52-9.83,8.23-14.78,10.4-19.04,10.3-18.86,28.84-8.66,24.05,13.22,48.27,26.11,73.15,39.54Z"/>
  <path d="M279.74,506.39c0-61.01,0-120.88,0-180.04,4.82-1.93,6.79.19,8.94,1.55,22.85,14.45,45.61,29.04,68.57,43.32,6.3,3.92,9.53,8.56,9.51,16.37-.17,78.13-.13,156.26.09,234.39.02,6.92-2.57,11.18-8.35,14.52-22.11,12.77-43.99,25.93-66.16,38.58-9.95,5.67-12.48,4.04-12.51-7.54-.12-53.34-.07-106.68-.09-161.14Z"/>
  <path d="M720.07,628.24c-.54,17.09,1.34,33.18-1.06,48.26-4.95,2.86-7.92.63-10.74-.92-22.04-12.12-43.95-24.47-66.03-36.51-7.8-4.25-10.74-10.14-10.7-19.15.28-58.21.18-116.42-.11-174.63-.04-9.18,2.79-16.66,8.32-23.79,24.15-31.15,49.34-61.5,71.97-93.81.99-1.41,2.67-2.34,6-3.25,4.78,100.97-.78,201.89,2.34,303.81Z"/>
  <path d="M571.83,321.01c13.74,30.33,27.15,59.89,40.6,89.53-6.07,2.75-8.96-.41-12.05-2.09-54.16-29.36-108.27-58.79-162.38-88.23-15.14-8.24-15.34-8.96-7.63-24.01,20.72-40.45,41.43-80.91,62.17-121.34,1.52-2.96,2.68-6.26,8.55-9.63,23.55,51.84,46.97,103.41,70.74,155.77Z"/>
  <path class="cls-1" d="M548,220.6c-11.33-23.7-22.32-46.62-33.4-69.76,5.63-2.59,7.86,1.45,10.41,3.55,58.37,47.89,116.57,95.97,175.02,143.75,7.21,5.89,7.35,9.93,1.5,17.32-20.29,25.6-39.7,51.9-59.47,77.91-2.47,3.24-4.37,7.1-10.91,9.31-27.54-60.3-55.17-120.8-83.15-182.08Z"/>
  <path d="M428.78,259.82c-16.21,30.17-32.25,59.47-47.66,89.11-4.82,9.27-9.9,10.64-18.55,5.05-20.49-13.25-41.28-26.02-62.01-38.9-7.61-4.73-8.65-9.06-1.04-15.3,58.65-48.06,117.11-96.35,175.65-144.53,1.96-1.62,3.92-3.6,9.09-2.61-18.55,35.85-36.81,71.15-55.49,107.19Z"/>
  <path d="M451.62,793.22c10.22,18.3,20.01,35.89,30.42,54.6-11.36-2.21-177.14-136.71-186.93-150.45,1.04-4.67,5.31-5.99,8.75-8.05,19.33-11.61,39.05-22.61,57.96-34.87,9.96-6.46,13.74-1.78,18.04,6.21,23.67,44.01,47.54,87.92,71.77,132.57Z"/>
  <path d="M642.4,658.65c21.25,12.05,41.77,23.71,65.61,37.25-64.42,51.52-124.58,104.05-190.04,154.1.27-8.75,4.84-12.63,7.35-17.24,30.38-55.77,60.93-111.45,91.44-167.15q9.01-16.44,25.65-6.96Z"/>
</svg>